<svg xmlns:xlink="http://www.w3.org/1999/xlink" width="2.993ex" height="2.843ex" style="font-size: 15px; vertical-align: -0.338ex;" viewBox="0 -1078.4 1288.8 1223.9" role="img" focusable="false" xmlns="http://www.w3.org/2000/svg">
<defs>
<path stroke-width="1" id="E1-MJMAINB-36" d="M48 318Q48 395 68 456T120 553T193 613T273 646T350 655Q425 655 461 616T497 524Q497 485 475 468T428 451Q399 451 378 470T357 521Q357 565 403 588Q375 601 351 601Q313 601 282 584Q242 565 222 526Q199 473 199 367Q201 369 210 380T227 396T246 410T275 422T312 426Q438 426 494 332Q526 285 526 208V199Q526 112 465 53Q428 17 388 3T285 -11Q236 -11 195 7T135 43T104 80Q48 165 48 318ZM375 231V244V268Q375 295 373 310T364 342T341 366T299 374H297Q231 374 208 287Q200 257 200 196Q201 120 209 100Q231 47 288 47Q351 47 368 90Q375 112 375 231Z"></path>
<path stroke-width="1" id="E1-MJMAINB-2E" d="M74 85Q74 121 99 146T156 171Q200 171 222 143T245 85Q245 56 224 29T160 1Q118 1 96 27T74 85Z"></path>
</defs>
<g stroke="currentColor" fill="currentColor" stroke-width="0" transform="matrix(1 0 0 -1 0 0)">
 <use transform="scale(1.44)" xlink:href="#E1-MJMAINB-36"></use>
 <use transform="scale(1.44)" xlink:href="#E1-MJMAINB-2E" x="575" y="0"></use>
</g>
</svg>